<?xml version="1.0" encoding="UTF-8" standalone="no"?>
<svg
   version="1.0"
   width="400.000000pt"
   height="400.000000pt"
   viewBox="0 0 400.000000 400.000000"
   preserveAspectRatio="xMidYMid meet"
   id="svg6"
   sodipodi:docname="remarkable-logos-idDV59uwq-.svg"
   inkscape:version="1.2.2 (b0a8486541, 2022-12-01)"
   xmlns:inkscape="http://www.inkscape.org/namespaces/inkscape"
   xmlns:sodipodi="http://sodipodi.sourceforge.net/DTD/sodipodi-0.dtd"
   xmlns="http://www.w3.org/2000/svg"
   xmlns:svg="http://www.w3.org/2000/svg">
  <defs
     id="defs10" />
  <sodipodi:namedview
     id="namedview8"
     pagecolor="#ffffff"
     bordercolor="#000000"
     borderopacity="0.25"
     inkscape:showpageshadow="2"
     inkscape:pageopacity="0.0"
     inkscape:pagecheckerboard="0"
     inkscape:deskcolor="#d1d1d1"
     inkscape:document-units="pt"
     showgrid="false"
     inkscape:zoom="1.845"
     inkscape:cx="266.93767"
     inkscape:cy="266.93767"
     inkscape:window-width="3840"
     inkscape:window-height="2073"
     inkscape:window-x="0"
     inkscape:window-y="44"
     inkscape:window-maximized="1"
     inkscape:current-layer="svg6" />
  <path
     d="M 0,200 V 400 H 200 400 V 200 0 H 200 0 Z m 210.5,-15 c 8.1,15.4 15,28 15.4,28 0.3,0 2.9,-4.6 5.8,-10.3 2.9,-5.6 9.4,-18.2 14.4,-28 l 9.2,-17.7 h 14.1 14 l -5.2,5.3 -5.2,5.3 v 35.7 35.8 l 5.3,4.9 5.2,4.9 -20.9,0.1 h -21 l 5.3,-4.8 5.2,-4.7 -0.3,-27.9 -0.3,-27.8 -15.9,29.6 c -8.7,16.3 -16.4,29.5 -17,29.3 -0.6,-0.2 -7.8,-13.2 -16.1,-29 l -15,-28.7 -0.3,27.4 -0.2,27.5 4.7,4.5 4.8,4.6 h -14.7 -14.7 l 4.9,-4.6 5,-4.7 v -35 -35.1 l -4,-5.7 c -2.2,-3.2 -4,-6 -4,-6.3 0,-0.3 6,-0.6 13.4,-0.6 h 13.3 z m -47.7,3.2 c 2.4,0.6 4.1,1.6 3.9,2.2 -0.2,0.6 -1.5,4.6 -2.8,8.8 -1.9,6 -2.7,7.6 -3.9,7.2 -0.8,-0.4 -3.8,-1.3 -6.6,-2.2 -4.4,-1.2 -5.5,-1.3 -8,-0.1 l -2.9,1.4 -0.3,17.5 -0.2,17.6 4,2.4 c 10.2,6.2 10.6,5.9 -11,6 h -19.4 l 3.7,-3.8 3.6,-3.7 0.1,-17.9 0.2,-18 -3.9,-3.2 -3.8,-3.2 2.5,-1 c 1.4,-0.5 6.9,-3.1 12.3,-5.6 5.3,-2.5 10.2,-4.6 10.7,-4.6 0.6,0 1,2.7 1,6.1 v 6 l 6.3,-6.4 c 6.5,-6.8 7.4,-7.1 14.5,-5.5 z"
     id="path2"
     style="fill:#000000;stroke:none;stroke-width:0.1" />
</svg>
