<?xml version="1.0" encoding="UTF-8" standalone="no"?>
<svg
   clip-rule="evenodd"
   fill-rule="evenodd"
   stroke-linejoin="round"
   stroke-miterlimit="2"
   version="1.1"
   viewBox="0 0 800 800"
   xml:space="preserve"
   id="svg52"
   sodipodi:docname="unique-diyhue-icon.svg"
   width="800"
   height="800"
   inkscape:version="1.2.2 (b0a8486541, 2022-12-01)"
   xmlns:inkscape="http://www.inkscape.org/namespaces/inkscape"
   xmlns:sodipodi="http://sodipodi.sourceforge.net/DTD/sodipodi-0.dtd"
   xmlns="http://www.w3.org/2000/svg"
   xmlns:svg="http://www.w3.org/2000/svg"><defs
   id="defs56">
        
    
            
            
            
            
            
            
            
            
            
            
            
            
        
                
            
                
            
                
            
                
            
                
            
                
            
                
            
                
            
                
            
                
            
                
            </defs><sodipodi:namedview
   id="namedview54"
   pagecolor="#ffffff"
   bordercolor="#000000"
   borderopacity="0.25"
   inkscape:showpageshadow="2"
   inkscape:pageopacity="0.0"
   inkscape:pagecheckerboard="0"
   inkscape:deskcolor="#d1d1d1"
   showgrid="false"
   inkscape:zoom="1.2811111"
   inkscape:cx="182.26366"
   inkscape:cy="475.75889"
   inkscape:window-width="3840"
   inkscape:window-height="2073"
   inkscape:window-x="0"
   inkscape:window-y="44"
   inkscape:window-maximized="1"
   inkscape:current-layer="svg52" />
    <rect
   width="800"
   height="800"
   fill="#ffffff"
   id="rect316"
   x="0"
   y="0"
   style="display:inline;fill:#4a5b63;fill-opacity:1;stroke-width:3.125" /><path
   d="m 492.68386,598.51708 c 0,-6.14399 -4.99126,-11.14194 -11.14298,-11.14194 H 318.74125 c -6.15172,0 -11.14298,4.99795 -11.14298,11.14194 0,6.14398 4.99126,11.14193 11.14298,11.14193 h 162.79963 c 6.15172,0 11.14298,-4.99795 11.14298,-11.14193 z"
   fill="#c7c7c7"
   id="path2"
   style="stroke-width:3.23956" /><path
   d="m 492.68386,630.82233 c 0,-6.14398 -4.99126,-11.14195 -11.14298,-11.14195 H 318.74125 c -6.15172,0 -11.14298,4.99797 -11.14298,11.14195 0,6.14397 4.99126,11.14194 11.14298,11.14194 h 162.79963 c 6.15172,0 11.14298,-4.99797 11.14298,-11.14194 z"
   fill="#c7c7c7"
   id="path6"
   style="stroke-width:3.23956" /><path
   d="m 460.85726,663.12439 c 0,-6.14397 -4.99161,-11.14194 -11.14246,-11.14194 h -99.13593 c -6.1487,0 -11.14247,4.99797 -11.14247,11.14194 0,6.14399 4.99377,11.14195 11.14247,11.14195 h 99.13593 c 6.15085,0 11.14246,-4.99796 11.14246,-11.14195 z"
   fill="#c7c7c7"
   id="path10"
   style="stroke-width:2.6239" /><circle
   cx="400.1015"
   cy="348.71271"
   r="214.88837"
   fill="none"
   id="circle14"
   style="stroke-width:3.22829" /><path
   d="m 430.78629,195.8156 c -9.68712,-1.8782 -19.70532,-2.86506 -29.95272,-2.86506 -10.73764,0 -21.22062,1.08236 -31.35023,3.15156 L 347.8075,140.29692 c 16.95802,-4.2976 34.72782,-6.58967 53.02607,-6.58967 17.80164,0 35.10029,2.16472 51.65403,6.23949 z"
   fill="#e01a60"
   id="path18"
   style="stroke-width:3.18341" /><path
   d="m 553.96261,371.12127 c 1.37355,-9.7715 1.83975,-19.82744 1.30854,-30.0611 -0.55664,-10.72325 -2.18099,-21.13606 -4.77253,-31.14485 l 54.60675,-24.53967 c 5.17095,16.71251 8.3811,34.33969 9.32967,52.61341 0.92279,17.77777 -0.34225,35.16548 -3.55346,51.90825 z"
   fill="#f7f08a"
   id="path22"
   style="stroke-width:3.18341" /><path
   d="m 369.49508,501.1047 c 9.68713,1.87822 19.70533,2.86507 29.95273,2.86507 10.73764,0 21.22061,-1.08236 31.35022,-3.15158 l 21.67585,55.80519 c -16.95803,4.2976 -34.72783,6.58966 -53.02607,6.58966 -17.80165,0 -35.10029,-2.16471 -51.65404,-6.23947 z"
   fill="#655fa9"
   id="path26"
   style="stroke-width:3.18341" /><path
   d="m 247.66278,317.71159 c -1.87821,9.68712 -2.86507,19.70531 -2.86507,29.95271 0,10.73765 1.08236,21.22061 3.15158,31.35022 l -55.8052,21.67586 c -4.2976,-16.95804 -6.58965,-34.72784 -6.58965,-53.02608 0,-17.80163 2.1647,-35.10029 6.23947,-51.65402 z"
   fill="#be1e2d"
   id="path30"
   style="stroke-width:3.18341" /><path
   d="m 504.08653,160.47974 c 30.08641,16.64923 55.76062,40.33382 74.80697,68.82535 l -54.56367,25.46728 c -11.78498,-15.56688 -26.42868,-28.87354 -43.14476,-39.09229 z"
   fill="#e15e43"
   id="path34"
   style="stroke-width:3.18341" /><path
   d="m 587.96939,452.23936 c -16.64924,30.0864 -40.33381,55.76061 -68.82534,74.80696 l -25.46728,-54.56366 c 15.56688,-11.78499 28.87354,-26.42868 39.09228,-43.14476 z"
   fill="#f3a144"
   id="path36"
   style="stroke-width:3.18341" /><path
   d="m 296.20979,536.44056 c -30.08642,-16.64924 -55.76061,-40.33381 -74.80696,-68.82534 l 54.56365,-25.46728 c 11.78499,15.56688 26.42868,28.87354 43.14477,39.09228 z"
   fill="#4bc6ec"
   id="path40"
   style="stroke-width:3.18341" /><path
   d="m 212.32692,244.36262 c 16.64924,-30.08642 40.33381,-55.76063 68.82534,-74.80698 l 25.46728,54.56366 c -15.56688,11.78499 -28.87354,26.42868 -39.09228,43.14478 z"
   fill="#ad4297"
   id="path44"
   style="stroke-width:3.18341" />
</svg>
