<?xml version="1.0" encoding="UTF-8" standalone="no"?>
<svg
   version="1.0"
   width="600pt"
   height="600pt"
   viewBox="0 0 600 600"
   preserveAspectRatio="xMidYMid"
   id="svg6"
   sodipodi:docname="unique-mqttexplorer-icon.svg"
   xml:space="preserve"
   inkscape:version="1.2.2 (b0a8486541, 2022-12-01)"
   xmlns:inkscape="http://www.inkscape.org/namespaces/inkscape"
   xmlns:sodipodi="http://sodipodi.sourceforge.net/DTD/sodipodi-0.dtd"
   xmlns:xlink="http://www.w3.org/1999/xlink"
   xmlns="http://www.w3.org/2000/svg"
   xmlns:svg="http://www.w3.org/2000/svg"><defs
     id="defs10"><linearGradient
       inkscape:collect="always"
       id="linearGradient5307"><stop
         style="stop-color:#1c334b;stop-opacity:0;"
         offset="0"
         id="stop5305" /><stop
         style="stop-color:#243342;stop-opacity:1"
         offset="1"
         id="stop5303" /></linearGradient><radialGradient
       inkscape:collect="always"
       xlink:href="#linearGradient5307"
       id="radialGradient5309"
       cx="248.82877"
       cy="248.84598"
       fx="248.82877"
       fy="248.84598"
       r="234.25"
       gradientUnits="userSpaceOnUse"
       gradientTransform="matrix(1.2130792,0.00749251,-0.00721126,1.1574135,-0.531081,9.917211)"
       spreadMethod="pad" /></defs><sodipodi:namedview
     id="namedview8"
     pagecolor="#ffffff"
     bordercolor="#000000"
     borderopacity="0.25"
     inkscape:showpageshadow="2"
     inkscape:pageopacity="0.0"
     inkscape:pagecheckerboard="0"
     inkscape:deskcolor="#d1d1d1"
     inkscape:document-units="pt"
     showgrid="false"
     inkscape:zoom="1.4142136"
     inkscape:cx="232.99168"
     inkscape:cy="341.17902"
     inkscape:window-width="3840"
     inkscape:window-height="2073"
     inkscape:window-x="0"
     inkscape:window-y="44"
     inkscape:window-maximized="1"
     inkscape:current-layer="svg6" /><rect
     width="600"
     height="600"
     fill="#ffffff"
     id="rect316"
     x="0"
     y="0"
     style="display:inline;fill:#4a5b63;fill-opacity:1;stroke-width:2.34375" /><circle
     style="display:inline;fill:#3f556a;fill-opacity:1;stroke-width:0.735769"
     id="path324"
     cx="300"
     cy="300"
     r="249" /><circle
     style="display:inline;fill:#4d7194;fill-opacity:1;stroke-width:1.98466"
     id="circle5598"
     cx="299.75006"
     cy="299.75"
     r="234.25" /><circle
     style="display:inline;fill:url(#radialGradient5309);fill-opacity:1;stroke-width:1.98466"
     id="path328"
     cx="299.75006"
     cy="299.75"
     r="234.25" /><path
     style="display:inline;fill:#ffffff;stroke-width:0.976562"
     d="m 397.66535,471.03971 c -2.01743,-1.08196 -4.29181,-3.54072 -5.64585,-6.10352 l -2.26746,-4.29166 -21.37017,-0.48828 c -19.64467,-0.44886 -21.59251,-0.65158 -24.12406,-2.51082 -5.66722,-4.16217 -6.16869,-6.597 -6.17036,-29.95988 l -0.002,-21.24024 H 313.1831 288.28076 l -0.004,8.54492 c -0.004,9.72517 -1.59283,13.51303 -7.0675,16.85098 -2.88104,1.75659 -4.94167,1.94055 -21.73744,1.94055 -16.79577,0 -18.85639,-0.18396 -21.73744,-1.94055 -5.55628,-3.3877 -7.06336,-7.08515 -7.0675,-17.33926 l -0.003,-9.0332 -20.75195,-0.004 c -23.16244,-0.004 -25.02804,-0.45782 -29.05801,-7.0675 -1.85438,-3.04142 -1.94071,-4.99315 -1.9442,-43.95423 l -0.004,-40.77124 H 167.1875 155.46875 l -0.004,8.54493 c -0.004,9.72516 -1.59283,13.51302 -7.0675,16.85097 -2.88104,1.7566 -4.94167,1.94055 -21.73744,1.94055 -20.72261,0 -22.90355,-0.57354 -26.860742,-7.06385 -1.831263,-3.00351 -1.940549,-4.97015 -1.940549,-34.92103 0,-29.95088 0.109286,-31.91752 1.940549,-34.92104 3.957192,-6.4903 6.138132,-7.06385 26.860742,-7.06385 16.79577,0 18.8564,0.18396 21.73744,1.94055 5.47467,3.33795 7.06335,7.12581 7.0675,16.85098 l 0.004,8.54492 h 11.71875 11.71875 l 0.004,-41.25977 c 0.004,-39.44831 0.0889,-41.3995 1.9442,-44.44252 4.02997,-6.60967 5.89556,-7.06342 29.058,-7.0675 l 20.7517,-0.004 v -8.56015 c 0,-10.48383 1.70319,-14.30135 7.82483,-17.53856 3.89481,-2.05962 5.41347,-2.2216 20.82904,-2.2216 14.70294,0 17.08757,0.22775 20.59836,1.96731 6.54224,3.24164 7.82601,5.87279 8.21233,16.83152 l 0.33565,9.52148 h 24.81084 24.81083 v -20.55631 c 0,-22.1299 0.2611,-23.50846 5.35486,-28.27181 2.60036,-2.43169 2.69712,-2.44258 24.29553,-2.73591 l 21.68475,-0.29451 1.71264,-4.82201 c 1.21962,-3.43392 2.75131,-5.52782 5.32083,-7.27386 3.53828,-2.40432 3.96594,-2.45184 22.06508,-2.45184 17.1937,0 18.68986,0.144 21.86128,2.10404 6.35304,3.9264 7.03714,7.09203 7.03714,32.56393 0,25.4719 -0.6841,28.63754 -7.03714,32.56393 -3.16283,1.95473 -4.67931,2.10404 -21.37079,2.10404 -15.49374,0 -18.43468,-0.24515 -21.3691,-1.78124 -5.01367,-2.62452 -7.79727,-8.68647 -7.79727,-16.98037 v -6.62902 H 378.61337 367.3829 v 38.08594 38.08594 h 11.23047 11.23047 v -7.35559 c 0,-8.44283 1.39206,-12.41929 5.80082,-16.57019 l 3.11169,-2.92969 18.7371,-0.27905 c 21.69934,-0.32317 23.86172,0.27035 27.74598,7.61559 2.12514,4.01872 2.2216,5.17745 2.2216,26.68842 0,20.5764 -0.16718,22.82469 -1.96732,26.45774 -3.66639,7.39949 -4.98943,7.83589 -24.81272,8.18434 -9.62649,0.16921 -18.49154,0.0595 -19.70013,-0.24386 -3.29961,-0.82814 -8.30224,-5.42352 -9.79596,-8.99848 l -1.32304,-3.1665 -21.24924,-0.29707 c -20.16811,-0.28195 -21.4046,-0.40789 -24.30268,-2.4751 -5.7118,-4.07427 -6.22391,-6.53875 -6.22391,-29.95198 V 220.898 h -24.90235 -24.90234 v 8.15636 c 0,8.93622 -1.52447,12.4867 -7.15169,16.65619 -2.57439,1.9075 -4.00996,2.04292 -21.6569,2.04292 -17.64695,0 -19.08251,-0.13542 -21.65691,-2.04292 -5.62721,-4.16949 -7.15169,-7.71997 -7.15169,-16.65619 V 220.898 h -11.23047 -11.23047 v 77.63672 77.63671 h 11.23047 11.23047 l 0.004,-8.05664 c 0.004,-9.19742 1.68034,-13.0781 7.0675,-16.36269 2.87265,-1.75149 4.94445,-1.94091 21.26439,-1.9442 20.24201,-0.004 22.87092,0.65903 27.08438,6.83179 1.87073,2.74065 2.19726,4.50367 2.19726,11.86366 v 8.64465 h 24.90235 24.90234 l 0.004,-20.75196 c 0.003,-18.98456 0.16891,-21.02301 1.9442,-23.9347 4.02184,-6.59636 5.92348,-7.06303 28.81386,-7.07098 l 20.50782,-0.007 2.4414,-5.12348 c 1.93198,-4.0544 3.35062,-5.58196 6.79872,-7.32074 3.97968,-2.00684 5.71795,-2.19727 20.05675,-2.19727 14.3388,0 16.07707,0.19043 20.05675,2.19727 3.18032,1.60374 4.96216,3.3843 6.59647,6.59179 2.17753,4.27359 2.23129,5.03957 1.95313,27.83203 -0.27367,22.4243 -0.37993,23.56914 -2.45804,26.48247 -4.49294,6.29871 -5.87348,6.69105 -24.68346,7.01483 -16.21773,0.27917 -17.31411,0.17949 -21.48438,-1.95313 -6.04412,-3.09086 -8.78906,-8.58475 -8.78906,-17.59093 l -5.1e-4,-6.6293 h -11.23047 -11.23047 v 38.08594 38.08593 h 11.23047 11.23047 v -7.50417 c 0,-8.524 2.12571,-14.12248 6.60599,-17.39817 2.41239,-1.76379 4.47008,-1.98017 21.22604,-2.23218 21.49617,-0.32329 23.6852,0.28153 27.56356,7.6156 2.12641,4.02112 2.2216,5.1712 2.2216,26.84314 0,21.67195 -0.0952,22.82203 -2.2216,26.84315 -3.7663,7.12217 -6.15377,7.82482 -26.587,7.82482 -15.28595,0 -18.05422,-0.23899 -20.98699,-1.81185 z"
     id="path9549"
     sodipodi:nodetypes="cscsscccccssscccscccccsssssssccccccccssssscccssscssssssssscccccccsscssssssscssscccsssssccccccccssssccccsccsssssssssccccccccssssssscc" /></svg>
