<?xml version="1.0" encoding="UTF-8" standalone="no"?>
<svg
   height="3500"
   viewBox="0.16 0 1119.1191 1120"
   width="3500"
   version="1.1"
   id="svg16"
   sodipodi:docname="unique-portainer-icon.svg"
   inkscape:version="1.2.2 (b0a8486541, 2022-12-01)"
   xmlns:inkscape="http://www.inkscape.org/namespaces/inkscape"
   xmlns:sodipodi="http://sodipodi.sourceforge.net/DTD/sodipodi-0.dtd"
   xmlns="http://www.w3.org/2000/svg"
   xmlns:svg="http://www.w3.org/2000/svg">
  <sodipodi:namedview
     id="namedview301"
     pagecolor="#ffffff"
     bordercolor="#000000"
     borderopacity="0.25"
     inkscape:showpageshadow="2"
     inkscape:pageopacity="0.0"
     inkscape:pagecheckerboard="0"
     inkscape:deskcolor="#d1d1d1"
     showgrid="false"
     inkscape:zoom="0.3936"
     inkscape:cx="575.45732"
     inkscape:cy="1982.9776"
     inkscape:window-width="3840"
     inkscape:window-height="2073"
     inkscape:window-x="0"
     inkscape:window-y="44"
     inkscape:window-maximized="1"
     inkscape:current-layer="svg16" />
  <defs
     id="defs20" />
  <rect
     width="1120"
     height="1120"
     fill="#ffffff"
     id="rect316"
     x="-0.28044999"
     y="0"
     style="fill:#4a5b63;fill-opacity:1;stroke-width:4.375"
     inkscape:transform-center-x="-44.721601"
     inkscape:transform-center-y="-13.977348" />
  <path
     d="m 467.21456,317.40138 h -12.2 v 63.2 h 12.2 z m 52.47,0 h -12.2 v 63.2 h 12.2 z m 71.69,-120.61 -12.5,-21.68 -208.67,120.61 12.5,21.68 z"
     id="path2"
     style="fill:#13bef9" />
  <path
     d="m 590.15456,196.79138 12.51,-21.68 208.67,120.61 -12.51,21.68 z"
     id="path4"
     style="fill:#13bef9" />
  <path
     d="m 848.25456,317.70138 v -25.03 h -571.71 v 25.03 z"
     id="path6"
     style="fill:#13bef9" />
  <path
     d="m 621.88456,671.29138 v -370.99 h 25.02 v 389.01 c -6.71,-7.64 -15.26,-13.13 -25.02,-18.02 z m -42.71,-6.41 V 141.52137 h 25.02 v 526.41001 c -7.02,-3.36 -24.1,-3.05 -25.02,-3.05 z m -237.04,52.21 c -30.51,-22.59 -50.64,-58.62 -50.64,-99.54 0,-21.68 5.79,-43.05 16.47,-61.68 h 213.55 c 10.98,18.63 16.48,40 16.48,61.68 0,18.93 -2.44,36.64 -10.07,52.52 -16.17,-15.57 -39.97,-22.29 -64.07,-22.29 -42.71,0 -79.32,26.56 -88.77,66.26 -3.36,-0.31 -5.49,-0.61 -8.85,-0.61 -8.24,0.3 -16.17,1.53 -24.1,3.66 z"
     fill-rule="evenodd"
     id="path8"
     style="fill:#13bef9" />
  <path
     d="m 447.07456,408.70138 h -64.67 v 65.03 h 64.67 z m -72.91,0 h -64.67 v 65.03 h 64.67 z m 0,72.36 h -64.67 v 65.04 h 64.67 z m 72.91,0 h -64.67 v 65.04 h 64.67 z m 72.61,0 h -64.67 v 65.04 h 64.67 z m 0,-107.17 h -64.67 v 65.03 h 64.67 z"
     id="path10"
     style="fill:#13bef9" />
  <path
     d="m 385.75456,726.86138 c 8.85,-37.55 42.71,-65.65 82.98,-65.65 25.94,0 49.12,11.61 64.99,29.93 13.72,-9.47 30.2,-14.96 48.2,-14.96 46.98,0 85.11,38.16 85.11,85.19 0,9.77 -1.52,18.93 -4.57,27.78 10.37,14.05 16.78,31.76 16.78,50.69 0,47.02 -38.14,85.19 -85.12,85.19 -20.75,0 -39.66,-7.33 -54.3,-19.54 -15.56,21.68 -40.88,36.03 -69.56,36.03 -32.95,0 -61.63,-18.93 -75.96,-46.41 -5.8,1.22 -11.6,1.83 -17.7,1.83 -46.98,0 -85.42,-38.17 -85.42,-85.19 0,-47.02 38.14,-85.19 85.42,-85.19 3.05,-0.31 6.1,-0.31 9.15,0.3 z"
     fill-rule="evenodd"
     id="path12"
     style="fill:#13bef9" />
</svg>
