<?xml version="1.0" encoding="UTF-8" standalone="no"?>
<svg
   inkscape:version="1.2.2 (b0a8486541, 2022-12-01)"
   sodipodi:docname="unique-rmfakecloud-icon.svg"
   id="svg6"
   preserveAspectRatio="xMidYMid"
   viewBox="0 0 300 300"
   height="300pt"
   width="300pt"
   version="1.0"
   xmlns:inkscape="http://www.inkscape.org/namespaces/inkscape"
   xmlns:sodipodi="http://sodipodi.sourceforge.net/DTD/sodipodi-0.dtd"
   xmlns="http://www.w3.org/2000/svg"
   xmlns:svg="http://www.w3.org/2000/svg">
  <defs
     id="defs10">
    <rect
       x="132.97128"
       y="96.17321"
       width="218.03888"
       height="103.77346"
       id="rect904" />
  </defs>
  <sodipodi:namedview
     id="namedview8"
     pagecolor="#ffffff"
     bordercolor="#000000"
     borderopacity="0.25"
     inkscape:showpageshadow="2"
     inkscape:pageopacity="0.0"
     inkscape:pagecheckerboard="0"
     inkscape:deskcolor="#d1d1d1"
     inkscape:document-units="pt"
     showgrid="false"
     inkscape:zoom="1.8844437"
     inkscape:cx="267.1876"
     inkscape:cy="234.81731"
     inkscape:window-width="2880"
     inkscape:window-height="1533"
     inkscape:window-x="3840"
     inkscape:window-y="584"
     inkscape:window-maximized="1"
     inkscape:current-layer="svg6" />
  <rect
     width="300"
     height="300"
     fill="#ffffff"
     id="rect316"
     x="0"
     y="-7.1054274e-15"
     style="fill:#4a5b63;fill-opacity:1;stroke-width:1.17188"
     inkscape:transform-center-x="-5.1110451"
     inkscape:transform-center-y="-1.5974181" />
  <circle
     style="fill:#1a1a1a;stroke-width:0.75"
     id="path1390"
     cx="151.01051"
     cy="149.41301"
     r="113.31443" />
  <path
     id="path2"
     style="fill:#ffffff;stroke:none;stroke-width:0.1"
     d="m 127.7814,94.830271 c -7.4,0 -13.39893,0.29912 -13.39893,0.59912 0,0.3 1.79903,3.1003 3.99902,6.300289 l 4.00049,5.69971 v 35.10059 34.99951 l -4.99951,4.70068 -4.8999,4.59961 h 14.6997 14.69971 l -4.80029,-4.59961 -4.69922,-4.5 0.19922,-27.49951 0.30029,-27.40137 15,28.70069 c 8.29999,15.79998 15.5001,28.79951 16.1001,28.99951 0.6,0.2 8.29952,-12.99982 16.99951,-29.29981 l 15.90088,-29.60009 0.30029,27.7998 0.29883,27.90088 -5.20019,4.69922 -5.29981,4.80029 h 21 l 20.90039,-0.0996 -5.20019,-4.8999 -5.29981,-4.8999 v -35.80079 -35.69971 l 5.2002,-5.29981 5.20019,-5.299799 H 214.7814 200.68227 l -9.20068,17.699709 c -4.99999,9.79999 -11.49942,22.40049 -14.39941,28.00048 -2.9,5.7 -5.50078,10.29932 -5.80078,10.29932 -0.4,0 -7.29991,-12.6005 -15.39991,-28.00049 L 141.08218,94.830271 Z M 103.8356,125.258 c -3.55312,-0.27187 -5.277843,1.17247 -10.152833,6.27246 l -6.3003,6.39991 v -6 c 0,-3.4 -0.40048,-6.10108 -1.00048,-6.10108 -0.5,0 -5.39924,2.10108 -10.69922,4.60108 -5.4,2.49999 -10.9003,5.10009 -12.3003,5.60009 l -2.50048,0.99903 3.7998,3.20068 3.90088,3.19922 -0.20068,18 -0.0996,17.90039 -3.60059,3.7002 -3.70019,3.7998 h 19.40039 c 21.599973,-0.1 21.199503,0.19999 10.99951,-6 l -3.99903,-2.39941 0.19922,-17.6001 0.3003,-17.50049 2.90039,-1.40039 c 2.49999,-1.2 3.59951,-1.09892 7.99951,0.10107 2.800003,0.9 5.800593,1.8002 6.600583,2.2002 1.2,0.4 1.99942,-1.20118 3.89942,-7.20117 1.3,-4.2 2.60078,-8.19932 2.80078,-8.79932 0.2,-0.6 -1.50088,-1.60019 -3.90088,-2.20019 -1.775,-0.4 -3.16182,-0.68135 -4.34619,-0.77198 z"
     sodipodi:nodetypes="sscccccccccccccsccccccccccccccccccsccssccssccccccccccccccccccscss" />
</svg>
