<?xml version="1.0" encoding="UTF-8" standalone="no"?>
<svg
   width="256"
   height="256"
   viewBox="0 0 256 256"
   fill="none"
   version="1.1"
   id="svg50"
   xmlns="http://www.w3.org/2000/svg"
   xmlns:svg="http://www.w3.org/2000/svg">
  <defs
     id="defs48">
    <clipPath
       id="clip1_2061_9729">
      <rect
         width="184"
         height="184"
         fill="white"
         transform="translate(36 36)"
         id="rect45" />
    </clipPath>
    <clipPath
       clipPathUnits="userSpaceOnUse"
       id="clipPath308">
      <g
         id="g312">
        <rect
           width="256"
           height="256"
           fill="#ffffff"
           id="rect310"
           x="0"
           y="0" />
      </g>
    </clipPath>
    <clipPath
       clipPathUnits="userSpaceOnUse"
       id="clipPath314">
      <g
         id="g318">
        <rect
           width="256"
           height="256"
           fill="#ffffff"
           id="rect316"
           x="0"
           y="0" />
      </g>
    </clipPath>
  </defs>
  <path
     d="M 256.001,0 H -0.00363159 V 256.01 H 256.001 Z"
     fill="#495962"
     id="path2"
     clip-path="url(#clipPath314)"
     style="clip-rule:evenodd;display:inline;fill-rule:evenodd;image-rendering:optimizeQuality;shape-rendering:geometricPrecision;text-rendering:geometricPrecision" />
  <path
     style="clip-rule:evenodd;fill-rule:evenodd;stroke-width:7.79338;image-rendering:optimizeQuality;shape-rendering:geometricPrecision;text-rendering:geometricPrecision"
     fill="#129999"
     d="m 64.069874,38.848383 c 10.391151,0 20.782614,0 31.173532,0 0,46.760298 0,93.520597 0,140.280897 -8.198639,-1.16511 -15.991866,0.13404 -23.380149,3.89669 -10.391152,5.19585 -10.391152,10.39092 0,15.58676 38.880413,3.89124 77.847323,5.18962 116.900743,3.8967 0,2.59753 0,5.19584 0,7.79338 -41.56445,0 -83.12968,0 -124.694126,0 0,-5.19585 -2.597769,-7.79338 -7.793383,-7.79338 0,-51.95615 0,-103.911517 0,-155.867664 5.195614,0 7.793383,-2.597768 7.793383,-7.793383 z"
     id="path378" />
  <path
     style="clip-rule:evenodd;fill-rule:evenodd;stroke-width:7.79338;image-rendering:optimizeQuality;shape-rendering:geometricPrecision;text-rendering:geometricPrecision"
     fill="#2fcc98"
     d="m 95.243406,38.848383 c 31.173534,0 62.347064,0 93.520594,0 0,5.195615 2.59754,7.793383 7.79338,7.793383 0,41.56445 0,83.129674 0,124.694124 -33.00653,7.29461 -66.7776,9.89215 -101.313974,7.79339 0,-46.7603 0,-93.520599 0,-140.280897 z"
     id="path382" />
  <path
     style="clip-rule:evenodd;fill-rule:evenodd;stroke-width:7.79338;image-rendering:optimizeQuality;shape-rendering:geometricPrecision;text-rendering:geometricPrecision"
     fill="#d3d7d7"
     d="m 196.55738,171.33589 c 0.52528,11.36821 -2.07226,21.75991 -7.79338,31.17354 -39.05342,1.29292 -78.02033,-0.005 -116.900743,-3.8967 -10.391152,-5.19584 -10.391152,-10.39091 0,-15.58676 7.388283,-3.76265 15.18151,-5.0618 23.380149,-3.89669 34.536374,2.09876 68.307444,-0.49878 101.313974,-7.79339 z"
     id="path386" />
</svg>
