<?xml version="1.0" encoding="UTF-8"?>
<!DOCTYPE svg PUBLIC "-//W3C//DTD SVG 1.1//EN" "http://www.w3.org/Graphics/SVG/1.1/DTD/svg11.dtd">
<svg xmlns="http://www.w3.org/2000/svg" version="1.1" width="32px" height="32px" style="shape-rendering:geometricPrecision; text-rendering:geometricPrecision; image-rendering:optimizeQuality; fill-rule:evenodd; clip-rule:evenodd" xmlns:xlink="http://www.w3.org/1999/xlink">
<g><path style="opacity:1" fill="#485962" d="M -0.5,-0.5 C 10.1667,-0.5 20.8333,-0.5 31.5,-0.5C 31.5,10.1667 31.5,20.8333 31.5,31.5C 20.8333,31.5 10.1667,31.5 -0.5,31.5C -0.5,20.8333 -0.5,10.1667 -0.5,-0.5 Z"/></g>
<g><path style="opacity:1" fill="#129999" d="M 7.5,4.5 C 8.83333,4.5 10.1667,4.5 11.5,4.5C 11.5,10.5 11.5,16.5 11.5,22.5C 10.448,22.3505 9.44802,22.5172 8.5,23C 7.16667,23.6667 7.16667,24.3333 8.5,25C 13.4889,25.4993 18.4889,25.6659 23.5,25.5C 23.5,25.8333 23.5,26.1667 23.5,26.5C 18.1667,26.5 12.8333,26.5 7.5,26.5C 7.5,25.8333 7.16667,25.5 6.5,25.5C 6.5,18.8333 6.5,12.1667 6.5,5.5C 7.16667,5.5 7.5,5.16667 7.5,4.5 Z"/></g>
<g><path style="opacity:1" fill="#2fcc98" d="M 11.5,4.5 C 15.5,4.5 19.5,4.5 23.5,4.5C 23.5,5.16667 23.8333,5.5 24.5,5.5C 24.5,10.8333 24.5,16.1667 24.5,21.5C 20.2648,22.436 15.9315,22.7693 11.5,22.5C 11.5,16.5 11.5,10.5 11.5,4.5 Z"/></g>
<g><path style="opacity:1" fill="#d3d7d7" d="M 24.5,21.5 C 24.5674,22.9587 24.2341,24.2921 23.5,25.5C 18.4889,25.6659 13.4889,25.4993 8.5,25C 7.16667,24.3333 7.16667,23.6667 8.5,23C 9.44802,22.5172 10.448,22.3505 11.5,22.5C 15.9315,22.7693 20.2648,22.436 24.5,21.5 Z"/></g>
</svg>
