<?xml version="1.0" encoding="UTF-8" standalone="no"?>
<svg
   viewBox="0 0 1400 1400.0001"
   version="1.1"
   id="svg20"
   sodipodi:docname="unique-yacht-icon.svg"
   inkscape:version="1.2.2 (b0a8486541, 2022-12-01)"
   width="1400"
   height="1400"
   xmlns:inkscape="http://www.inkscape.org/namespaces/inkscape"
   xmlns:sodipodi="http://sodipodi.sourceforge.net/DTD/sodipodi-0.dtd"
   xmlns="http://www.w3.org/2000/svg"
   xmlns:svg="http://www.w3.org/2000/svg">
  <sodipodi:namedview
     id="namedview22"
     pagecolor="#ffffff"
     bordercolor="#000000"
     borderopacity="0.25"
     inkscape:showpageshadow="2"
     inkscape:pageopacity="0.0"
     inkscape:pagecheckerboard="0"
     inkscape:deskcolor="#d1d1d1"
     showgrid="false"
     inkscape:zoom="0.7907014"
     inkscape:cx="572.27671"
     inkscape:cy="621.60001"
     inkscape:window-width="3840"
     inkscape:window-height="2073"
     inkscape:window-x="0"
     inkscape:window-y="44"
     inkscape:window-maximized="1"
     inkscape:current-layer="svg20" />
  <defs
     id="defs4">
    <style
       id="style2">.cls-1{fill:#fff;}.cls-2{fill:#34495e;}.cls-3{fill:#41b883;}</style>
  </defs>
  <rect
     width="1400"
     height="1400"
     fill="#ffffff"
     id="rect316"
     x="0"
     y="0"
     style="fill:#4a5b63;fill-opacity:1;stroke-width:5.46879"
     inkscape:transform-center-x="-17.888629"
     inkscape:transform-center-y="-5.5909634" />
  <path
     class="cls-1"
     d="m 419.76228,502.95737 c 90.66,-49 189.17,-89.3 292.78,-119.83 q 47.61,-14 96.63,-25.3 c -93.02,-5.67 -258.83,-15.8 -263.67,-16.31 -69.93,-7.34 -143.51,70.16 -143.51,70.16 0,0 -11.6,64.83 -19.78,111.94 12.51,-7 24.87,-13.81 37.55,-20.66 z"
     id="path6" />
  <path
     class="cls-1"
     d="m 366.89228,450.38737 c -52.69,17.38 -97.22,64.26 -97.22,64.26 0,0 -0.14,37 -0.26,78.78 l 81.74,-54.16 c 6.52,-37.38 13.84,-78.24 15.74,-88.88 z"
     id="path8" />
  <path
     class="cls-2"
     d="m 1123.8823,1104.0274 c -87.73,-102.91 -273.33002,-335.07003 -865.80002,-319.30003 0,0 -4.85,26.74 -91.18,135.1 486.16,-41.86 654.24,-11.64 956.98002,184.20003 z"
     id="path10" />
  <path
     class="cls-3"
     d="m 1115.4123,1094.0274 c 6.61,5.94 10.17,9.39 10.47,9.69 C 966.36228,731.34737 494.67228,693.69737 494.67228,693.69737 c -7.46,27.49 -47.67,62.74 -96.28,92 466.14,20.45 633.70002,210.45 717.02002,308.33003 z"
     id="path12" />
  <path
     class="cls-2"
     d="m 1125.8823,1103.7274 c -23.32,-94.37 -96.42,-324.42003 -429.66002,-489.44003 0,0 -1.46,44.26 -54,108.13 152.39,42.12 381.74002,143.4 483.66002,381.31003 z"
     id="path14" />
  <path
     class="cls-1"
     d="m 1234.1423,343.35737 c -1,-0.07 -103.7,-6.89 -253.26002,12.91 -136.54,18.08 -342.09,62.76 -546,172.93 -14.8,8 -29.17,15.93 -43.91,24.23 a 8.08,8.08 0 0 0 -1.1,0.64 l -237.03,157.06 a 10.31,10.31 0 0 0 -4.35,6.27 l -22.56,98.2 a 10.31,10.31 0 0 0 9.93,12.61 l 98,1 c 22.38,-34.14 24.27,-44.55 24.27,-44.55 q 74.33,-2 140.28,1 v 0 c 48.61,-29.29 88.82,-64.54 96.28,-92 0,0 61.52,4.92 147.62,28.72 52.5,-63.87 54,-108.13 54,-108.13 119.1,59 205,126.27 267.22,192.7 49.00002,-143.34 275.78002,-444 278.19002,-447.14 l 11.52,-13.06 z m -236.67002,131.51 c -100.22,-8.29 -219.87,9 -219.87,9 l -18.14,-15.09 c 159.57,-42.4 276.60002,-44.13 276.60002,-44.13 z"
     id="path16" />
</svg>
